<svg width="38" height="28" viewBox="0 0 38 28" fill="none" xmlns="http://www.w3.org/2000/svg">
<path d="M9.114 27.244C7.48067 27.244 6.076 26.95 4.9 26.362C3.724 25.774 2.80933 24.9247 2.156 23.814C1.43733 22.8993 0.882 21.6907 0.49 20.188C0.163333 18.6853 0 17.1827 0 15.68C0 12.4133 0.816667 9.408 2.45 6.664C4.14867 3.85467 6.762 1.63334 10.29 0L11.172 1.764C9.34267 2.548 7.70933 3.75667 6.272 5.39C4.83467 7.02333 3.98533 8.68934 3.724 10.388C3.39733 11.8253 3.39733 13.1973 3.724 14.504C5.16133 12.936 7.056 12.152 9.408 12.152C11.6947 12.152 13.5567 12.838 14.994 14.21C16.4313 15.5167 17.15 17.346 17.15 19.698C17.15 21.9847 16.366 23.814 14.798 25.186C13.2953 26.558 11.4007 27.244 9.114 27.244ZM29.302 27.244C27.6687 27.244 26.264 26.95 25.088 26.362C23.912 25.774 22.9973 24.9247 22.344 23.814C21.6253 22.8993 21.07 21.6907 20.678 20.188C20.3513 18.6853 20.188 17.1827 20.188 15.68C20.188 12.4133 21.0047 9.408 22.638 6.664C24.3367 3.85467 26.95 1.63334 30.478 0L31.36 1.764C29.5307 2.548 27.8973 3.75667 26.46 5.39C25.0227 7.02333 24.1733 8.68934 23.912 10.388C23.5853 11.8253 23.5853 13.1973 23.912 14.504C25.3493 12.936 27.244 12.152 29.596 12.152C31.8827 12.152 33.7447 12.838 35.182 14.21C36.6193 15.5167 37.338 17.346 37.338 19.698C37.338 21.9847 36.554 23.814 34.986 25.186C33.4833 26.558 31.5887 27.244 29.302 27.244Z" fill="#3498DB"/>
</svg>
