<svg width="223" height="30" viewBox="0 0 223 30" fill="none" xmlns="http://www.w3.org/2000/svg">
<rect x="0.576923" y="0.576923" width="221.538" height="28.8462" stroke="#303345" stroke-width="1.15385"/>
<rect width="95.7692" height="30" fill="#3498DB"/>
<path d="M16.569 23.4307C14.9229 23.4307 13.4305 23.0769 12.0921 22.3692C10.769 21.6461 9.72285 20.6538 8.95362 19.3923C8.19977 18.1153 7.82285 16.6769 7.82285 15.0769C7.82285 13.4769 8.19977 12.0461 8.95362 10.7846C9.72285 9.50765 10.769 8.51535 12.0921 7.80765C13.4305 7.08458 14.9305 6.72304 16.5921 6.72304C17.9921 6.72304 19.2536 6.96919 20.3767 7.4615C21.5152 7.95381 22.469 8.6615 23.2382 9.58458L20.8382 11.8C19.7459 10.5384 18.3921 9.90765 16.7767 9.90765C15.7767 9.90765 14.8844 10.1307 14.0998 10.5769C13.3152 11.0077 12.6998 11.6153 12.2536 12.4C11.8229 13.1846 11.6075 14.0769 11.6075 15.0769C11.6075 16.0769 11.8229 16.9692 12.2536 17.7538C12.6998 18.5384 13.3152 19.1538 14.0998 19.6C14.8844 20.0307 15.7767 20.2461 16.7767 20.2461C18.3921 20.2461 19.7459 19.6077 20.8382 18.3307L23.2382 20.5461C22.469 21.4846 21.5152 22.2 20.3767 22.6923C19.2382 23.1846 17.969 23.4307 16.569 23.4307Z" fill="#171923"/>
<path d="M25.7628 6.99996H29.5013V20.1077H37.6013V23.1538H25.7628V6.99996ZM52.1978 20.1538V23.1538H39.6901V6.99996H51.8978V9.99996H43.4055V13.5077H50.9055V16.4153H43.4055V20.1538H52.1978ZM65.8108 19.6923H58.3108L56.8801 23.1538H53.0493L60.2493 6.99996H63.9416L71.1647 23.1538H67.2416L65.8108 19.6923ZM64.6339 16.8538L62.0724 10.6692L59.5108 16.8538H64.6339ZM87.656 6.99996V23.1538H84.5868L76.5329 13.3461V23.1538H72.8406V6.99996H75.9329L83.9637 16.8077V6.99996H87.656Z" fill="#20233A"/>
<path d="M119.249 23.1538L119.226 13.4615L114.472 21.4461H112.787L108.057 13.6692V23.1538H104.549V6.99996H107.641L113.687 17.0384L119.641 6.99996H122.71L122.757 23.1538H119.249ZM139.097 20.1538V23.1538H126.589V6.99996H138.797V9.99996H130.305V13.5077H137.805V16.4153H130.305V20.1538H139.097ZM142.071 6.99996H149.41C151.164 6.99996 152.71 7.33842 154.048 8.01535C155.402 8.67688 156.448 9.61535 157.187 10.8307C157.941 12.0461 158.318 13.4615 158.318 15.0769C158.318 16.6923 157.941 18.1077 157.187 19.323C156.448 20.5384 155.402 21.4846 154.048 22.1615C152.71 22.823 151.164 23.1538 149.41 23.1538H142.071V6.99996ZM149.225 20.0846C150.841 20.0846 152.125 19.6384 153.079 18.7461C154.048 17.8384 154.533 16.6153 154.533 15.0769C154.533 13.5384 154.048 12.323 153.079 11.4307C152.125 10.523 150.841 10.0692 149.225 10.0692H145.81V20.0846H149.225ZM161.137 6.99996H164.875V23.1538H161.137V6.99996ZM176.44 23.4307C174.794 23.4307 173.301 23.0769 171.963 22.3692C170.64 21.6461 169.594 20.6538 168.824 19.3923C168.071 18.1153 167.694 16.6769 167.694 15.0769C167.694 13.4769 168.071 12.0461 168.824 10.7846C169.594 9.50765 170.64 8.51535 171.963 7.80765C173.301 7.08458 174.801 6.72304 176.463 6.72304C177.863 6.72304 179.124 6.96919 180.248 7.4615C181.386 7.95381 182.34 8.6615 183.109 9.58458L180.709 11.8C179.617 10.5384 178.263 9.90765 176.648 9.90765C175.648 9.90765 174.755 10.1307 173.971 10.5769C173.186 11.0077 172.571 11.6153 172.124 12.4C171.694 13.1846 171.478 14.0769 171.478 15.0769C171.478 16.0769 171.694 16.9692 172.124 17.7538C172.571 18.5384 173.186 19.1538 173.971 19.6C174.755 20.0307 175.648 20.2461 176.648 20.2461C178.263 20.2461 179.617 19.6077 180.709 18.3307L183.109 20.5461C182.34 21.4846 181.386 22.2 180.248 22.6923C179.109 23.1846 177.84 23.4307 176.44 23.4307ZM195.957 19.6923H188.457L187.026 23.1538H183.195L190.395 6.99996H194.087L201.31 23.1538H197.387L195.957 19.6923ZM194.78 16.8538L192.218 10.6692L189.657 16.8538H194.78ZM202.986 6.99996H206.725V20.1077H214.825V23.1538H202.986V6.99996Z" fill="white"/>
</svg>
