<svg width="193" height="26" viewBox="0 0 193 26" fill="none" xmlns="http://www.w3.org/2000/svg">
<rect x="0.5" y="0.5" width="192" height="25" stroke="#DBDBDB"/>
<rect width="83" height="26" fill="#3498DB"/>
<path d="M14.36 20.24C12.9333 20.24 11.64 19.9333 10.48 19.32C9.33333 18.6933 8.42667 17.8333 7.76 16.74C7.10667 15.6333 6.78 14.3867 6.78 13C6.78 11.6133 7.10667 10.3733 7.76 9.28C8.42667 8.17333 9.33333 7.31333 10.48 6.7C11.64 6.07333 12.94 5.76 14.38 5.76C15.5933 5.76 16.6867 5.97333 17.66 6.4C18.6467 6.82667 19.4733 7.44 20.14 8.24L18.06 10.16C17.1133 9.06667 15.94 8.52 14.54 8.52C13.6733 8.52 12.9 8.71333 12.22 9.1C11.54 9.47333 11.0067 10 10.62 10.68C10.2467 11.36 10.06 12.1333 10.06 13C10.06 13.8667 10.2467 14.64 10.62 15.32C11.0067 16 11.54 16.5333 12.22 16.92C12.9 17.2933 13.6733 17.48 14.54 17.48C15.94 17.48 17.1133 16.9267 18.06 15.82L20.14 17.74C19.4733 18.5533 18.6467 19.1733 17.66 19.6C16.6733 20.0267 15.5733 20.24 14.36 20.24ZM22.328 6H25.568V17.36H32.588V20H22.328V6ZM45.2383 17.4V20H34.3983V6H44.9783V8.6H37.6183V11.64H44.1183V14.16H37.6183V17.4H45.2383ZM57.0363 17H50.5363L49.2963 20H45.9762L52.2163 6H55.4163L61.6763 20H58.2763L57.0363 17ZM56.0163 14.54L53.7963 9.18L51.5763 14.54H56.0163ZM75.9688 6V20H73.3088L66.3288 11.5V20H63.1288V6H65.8088L72.7687 14.5V6H75.9688Z" fill="white"/>
<path d="M103.349 20L103.329 11.6L99.2092 18.52H97.7492L93.6492 11.78V20H90.6092V6H93.2892L98.5292 14.7L103.689 6H106.349L106.389 20H103.349ZM120.551 17.4V20H109.711V6H120.291V8.6H112.931V11.64H119.431V14.16H112.931V17.4H120.551ZM123.129 6H129.489C131.009 6 132.349 6.29333 133.509 6.88C134.682 7.45333 135.589 8.26667 136.229 9.32C136.882 10.3733 137.209 11.6 137.209 13C137.209 14.4 136.882 15.6267 136.229 16.68C135.589 17.7333 134.682 18.5533 133.509 19.14C132.349 19.7133 131.009 20 129.489 20H123.129V6ZM129.329 17.34C130.729 17.34 131.842 16.9533 132.669 16.18C133.509 15.3933 133.929 14.3333 133.929 13C133.929 11.6667 133.509 10.6133 132.669 9.84C131.842 9.05333 130.729 8.66 129.329 8.66H126.369V17.34H129.329ZM139.652 6H142.892V20H139.652V6ZM152.915 20.24C151.488 20.24 150.195 19.9333 149.035 19.32C147.888 18.6933 146.981 17.8333 146.315 16.74C145.661 15.6333 145.335 14.3867 145.335 13C145.335 11.6133 145.661 10.3733 146.315 9.28C146.981 8.17333 147.888 7.31333 149.035 6.7C150.195 6.07333 151.495 5.76 152.935 5.76C154.148 5.76 155.241 5.97333 156.215 6.4C157.201 6.82667 158.028 7.44 158.695 8.24L156.615 10.16C155.668 9.06667 154.495 8.52 153.095 8.52C152.228 8.52 151.455 8.71333 150.775 9.1C150.095 9.47333 149.561 10 149.175 10.68C148.801 11.36 148.615 12.1333 148.615 13C148.615 13.8667 148.801 14.64 149.175 15.32C149.561 16 150.095 16.5333 150.775 16.92C151.455 17.2933 152.228 17.48 153.095 17.48C154.495 17.48 155.668 16.9267 156.615 15.82L158.695 17.74C158.028 18.5533 157.201 19.1733 156.215 19.6C155.228 20.0267 154.128 20.24 152.915 20.24ZM169.829 17H163.329L162.089 20H158.769L165.009 6H168.209L174.469 20H171.069L169.829 17ZM168.809 14.54L166.589 9.18L164.369 14.54H168.809ZM175.922 6H179.162V17.36H186.182V20H175.922V6Z" fill="#171B1E"/>
</svg>
