<svg width="36" height="36" viewBox="0 0 36 36" fill="none" xmlns="http://www.w3.org/2000/svg">
<path opacity="0.7" fill-rule="evenodd" clip-rule="evenodd" d="M2.90618 17.5175C2.90618 26.1201 9.87993 33.0938 18.4825 33.0938C27.0851 33.0938 34.0588 26.1201 34.0588 17.5175C34.0588 8.91493 27.0851 1.94118 18.4825 1.94118C9.87993 1.94118 2.90618 8.91493 2.90618 17.5175ZM0.965 17.5175C0.965 27.1921 8.80785 35.035 18.4825 35.035C28.1571 35.035 36 27.1921 36 17.5175C36 7.84285 28.1571 0 18.4825 0C8.80785 0 0.965 7.84285 0.965 17.5175ZM20.6548 10.473C20.26 10.8679 20.26 11.508 20.6548 11.9028L25.4057 16.6537L8.37877 16.6537C7.82039 16.6537 7.36774 17.1064 7.36774 17.6647C7.36774 18.2231 7.82039 18.6758 8.37877 18.6758L25.3326 18.6758L20.6548 23.3535C20.26 23.7484 20.26 24.3885 20.6548 24.7834C21.0497 25.1782 21.6898 25.1782 22.0846 24.7834L28.5249 18.3431C28.9197 17.9483 28.9197 17.3081 28.5249 16.9133L22.0846 10.473C21.6898 10.0782 21.0497 10.0782 20.6548 10.473Z" fill="#3498DB"/>
</svg>
