<svg width="186" height="26" viewBox="0 0 186 26" fill="none" xmlns="http://www.w3.org/2000/svg">
<rect x="0.5" y="0.5" width="185" height="25" stroke="#303345"/>
<rect width="80" height="26" fill="#3498DB"/>
<path d="M14.36 20.24C12.9333 20.24 11.64 19.9333 10.48 19.32C9.33333 18.6933 8.42667 17.8333 7.76 16.74C7.10667 15.6333 6.78 14.3867 6.78 13C6.78 11.6133 7.10667 10.3733 7.76 9.28C8.42667 8.17333 9.33333 7.31333 10.48 6.7C11.64 6.07333 12.94 5.76 14.38 5.76C15.5933 5.76 16.6867 5.97333 17.66 6.4C18.6467 6.82667 19.4733 7.44 20.14 8.24L18.06 10.16C17.1133 9.06667 15.94 8.52 14.54 8.52C13.6733 8.52 12.9 8.71333 12.22 9.1C11.54 9.47333 11.0067 10 10.62 10.68C10.2467 11.36 10.06 12.1333 10.06 13C10.06 13.8667 10.2467 14.64 10.62 15.32C11.0067 16 11.54 16.5333 12.22 16.92C12.9 17.2933 13.6733 17.48 14.54 17.48C15.94 17.48 17.1133 16.9267 18.06 15.82L20.14 17.74C19.4733 18.5533 18.6467 19.1733 17.66 19.6C16.6733 20.0267 15.5733 20.24 14.36 20.24ZM22.328 6H25.568V17.36H32.588V20H22.328V6ZM45.2383 17.4V20H34.3983V6H44.9783V8.6H37.6183V11.64H44.1183V14.16H37.6183V17.4H45.2383ZM57.0363 17H50.5363L49.2963 20H45.9762L52.2163 6H55.4163L61.6763 20H58.2763L57.0363 17ZM56.0163 14.54L53.7963 9.18L51.5763 14.54H56.0163ZM75.9688 6V20H73.3088L66.3288 11.5V20H63.1288V6H65.8088L72.7687 14.5V6H75.9688Z" fill="#20233A"/>
<path d="M97.6852 20L97.6652 11.6L93.5452 18.52H92.0852L87.9852 11.78V20H84.9452V6H87.6252L92.8652 14.7L98.0252 6H100.685L100.725 20H97.6852ZM114.887 17.4V20H104.047V6H114.627V8.6H107.267V11.64H113.767V14.16H107.267V17.4H114.887ZM117.465 6H123.825C125.345 6 126.685 6.29333 127.845 6.88C129.018 7.45333 129.925 8.26667 130.565 9.32C131.218 10.3733 131.545 11.6 131.545 13C131.545 14.4 131.218 15.6267 130.565 16.68C129.925 17.7333 129.018 18.5533 127.845 19.14C126.685 19.7133 125.345 20 123.825 20H117.465V6ZM123.665 17.34C125.065 17.34 126.178 16.9533 127.005 16.18C127.845 15.3933 128.265 14.3333 128.265 13C128.265 11.6667 127.845 10.6133 127.005 9.84C126.178 9.05333 125.065 8.66 123.665 8.66H120.705V17.34H123.665ZM133.988 6H137.228V20H133.988V6ZM147.251 20.24C145.824 20.24 144.531 19.9333 143.371 19.32C142.224 18.6933 141.317 17.8333 140.651 16.74C139.997 15.6333 139.671 14.3867 139.671 13C139.671 11.6133 139.997 10.3733 140.651 9.28C141.317 8.17333 142.224 7.31333 143.371 6.7C144.531 6.07333 145.831 5.76 147.271 5.76C148.484 5.76 149.577 5.97333 150.551 6.4C151.537 6.82667 152.364 7.44 153.031 8.24L150.951 10.16C150.004 9.06667 148.831 8.52 147.431 8.52C146.564 8.52 145.791 8.71333 145.111 9.1C144.431 9.47333 143.897 10 143.511 10.68C143.137 11.36 142.951 12.1333 142.951 13C142.951 13.8667 143.137 14.64 143.511 15.32C143.897 16 144.431 16.5333 145.111 16.92C145.791 17.2933 146.564 17.48 147.431 17.48C148.831 17.48 150.004 16.9267 150.951 15.82L153.031 17.74C152.364 18.5533 151.537 19.1733 150.551 19.6C149.564 20.0267 148.464 20.24 147.251 20.24ZM164.165 17H157.665L156.425 20H153.105L159.345 6H162.545L168.805 20H165.405L164.165 17ZM163.145 14.54L160.925 9.18L158.705 14.54H163.145ZM170.258 6H173.498V17.36H180.518V20H170.258V6Z" fill="white"/>
</svg>
