<svg width="27" height="30" viewBox="0 0 27 30" fill="none" xmlns="http://www.w3.org/2000/svg">
<path d="M5 0C0.366501 0 0 2.67 0 7.245V22.74C0 27.39 0.366501 30 5 30H22C26.56 30 27 27.39 27 22.74V7.245C27 2.67 26.56 0 22 0H5ZM19.38 20.61C19.83 20.565 20.265 20.775 20.505 21.165C20.745 21.54 20.745 22.035 20.505 22.425C20.265 22.8 19.83 23.025 19.38 22.965H7.62C7.0215 22.905 6.57 22.3935 6.57 21.795C6.57 21.18 7.0215 20.67 7.62 20.61H19.38ZM7.62 13.7685H19.38C20.0265 13.7685 20.55 14.295 20.55 14.94C20.55 15.585 20.0265 16.11 19.38 16.11H7.62C6.975 16.11 6.45 15.585 6.45 14.94C6.45 14.295 6.975 13.7685 7.62 13.7685ZM14.8965 6.975H19.38V6.99C20.0265 6.99 20.55 7.515 20.55 8.16C20.55 8.805 20.0265 9.33 19.38 9.33H14.8965C14.25 9.33 13.725 8.805 13.725 8.1435C13.725 7.5 14.25 6.975 14.8965 6.975Z" fill="#D93062"/>
</svg>
