<svg width="36" height="36" viewBox="0 0 36 36" fill="none" xmlns="http://www.w3.org/2000/svg">
<path opacity="0.7" fill-rule="evenodd" clip-rule="evenodd" d="M33.0938 17.5175C33.0938 26.1201 26.1201 33.0938 17.5175 33.0938C8.91493 33.0938 1.94118 26.1201 1.94118 17.5175C1.94118 8.91493 8.91493 1.94118 17.5175 1.94118C26.1201 1.94118 33.0938 8.91493 33.0938 17.5175ZM35.035 17.5175C35.035 27.1921 27.1921 35.035 17.5175 35.035C7.84285 35.035 0 27.1921 0 17.5175C0 7.84285 7.84285 0 17.5175 0C27.1921 0 35.035 7.84285 35.035 17.5175ZM15.3452 10.473C15.74 10.8679 15.74 11.508 15.3452 11.9028L10.5943 16.6537L27.6212 16.6537C28.1796 16.6537 28.6323 17.1064 28.6323 17.6647C28.6323 18.2231 28.1796 18.6758 27.6212 18.6758L10.6674 18.6758L15.3452 23.3535C15.74 23.7484 15.74 24.3885 15.3452 24.7834C14.9503 25.1782 14.3102 25.1782 13.9154 24.7834L7.47509 18.3431C7.08026 17.9483 7.08026 17.3081 7.47509 16.9133L13.9154 10.473C14.3102 10.0782 14.9503 10.0782 15.3452 10.473Z" fill="#393E43"/>
</svg>
